<svg id="Layer_1" enable-background="new 0 0 512 512" height="512" viewBox="0 0 512 512" width="512" xmlns="http://www.w3.org/2000/svg"><path d="m509.618 489.07-125.044-200.877c.224-1.03.349-273.193.349-273.193 0-8.284-6.716-15-15-15h-228c-8.284 0-15 6.716-15 15 0 0 .06 271.332.146 271.981l-124.715 201.939c-4.353 7.048-2.168 16.291 4.88 20.644 2.456 1.517 5.178 2.24 7.868 2.24 5.028 0 9.94-2.528 12.776-7.12l126.41-204.684h19.512c-3.67 9.756-5.632 20.191-5.632 30.832 0 10.323 1.756 20.355 5.226 29.913-4.175 9.657-6.472 20.244-6.472 31.254v26c0 8.284 6.716 15 15 15h23.959v64c0 8.284 6.716 15 15 15s15-6.716 15-15v-64h39.999v64c0 8.284 6.716 15 15 15s15-6.716 15-15v-64h24.042c8.284 0 15-6.716 15-15v-26c0-11.4-2.452-22.348-6.909-32.275 3.231-9.275 4.888-18.983 4.888-28.892 0-10.735-1.91-21.137-5.525-30.832h19.209l127.563 204.924c2.843 4.566 7.738 7.075 12.749 7.075 2.706 0 5.445-.732 7.912-2.268 7.035-4.377 9.187-13.628 4.809-20.661zm-299.254-167.593c-4.304 2.173-8.36 4.726-12.143 7.597.256-8.323 2.315-16.414 5.926-23.75zm104.559 81.523h-118v-11c0-22.242 15.067-41.736 36.64-47.407 4.126-1.084 7.595-3.875 9.539-7.671 1.944-3.797 2.18-8.243.647-12.224l-17.204-44.698h58.326c-.299.844-16.849 44.677-16.849 44.677-1.533 3.984-1.297 8.433.651 12.232s5.422 6.587 9.552 7.667c21.607 5.651 36.697 25.152 36.697 47.423v11.001zm-74.042-188c0-8.271 6.729-15 15-15s15 6.729 15 15-6.729 15-15 15-15-6.729-15-15zm60.532 106.44 5.931-15.411c3.288 6.932 5.176 14.529 5.491 22.443-3.576-2.644-7.392-5.003-11.422-7.032zm53.51-51.44h-36.477c-3.037-3.148-23.964-20-33.228-20h-1.096c10.212-8.256 16.759-20.875 16.759-35 0-24.813-20.187-45-45-45s-45 20.187-45 45c0 14.125 6.547 26.744 16.76 35h-1.095c-8.712 0-30.359 16.326-33.877 20h-35.745v-240h198v240z"/></svg>