<?xml version="1.0" encoding="utf-8"?>
<!-- Generator: Adobe Illustrator 21.0.0, SVG Export Plug-In . SVG Version: 6.00 Build 0)  -->
<svg version="1.1" id="Layer_1" xmlns="http://www.w3.org/2000/svg" xmlns:xlink="http://www.w3.org/1999/xlink" x="0px" y="0px"
	 viewBox="0 0 512 512" style="enable-background:new 0 0 512 512;" xml:space="preserve">
<style type="text/css">
	.st0{fill:#D3D3D3;}
	.st1{fill:#EC5242;}
</style>
<path class="st0" d="M508,228.7l-10-17.3c-1.3-2.3-3.5-4-6.1-4.7c-2.6-0.7-5.3-0.3-7.6,1l-101,58.3H128.7l-101-58.3
	c-2.3-1.3-5-1.7-7.6-1c-2.6,0.7-4.7,2.4-6.1,4.7L4,228.7c-8.3,14.3-3.3,32.7,11,41L116,328v128c0,16.5,13.5,30,30,30h220
	c16.5,0,30-13.5,30-30V328l101-58.3c6.9-4,11.9-10.5,14-18.2C513,243.7,512,235.6,508,228.7z M251.6,466L376,341.6v51.7L303.3,466
	H251.6z M376,313.3L223.3,466h-51.7l180-180H376L376,313.3z M163.3,286L136,313.3V286H163.3z M25,252.3c-2.3-1.3-3.9-3.5-4.6-6.1
	c-0.7-2.6-0.3-5.3,1-7.6l5-8.7l89.7,51.8v23.1L25,252.3z M136,421.6l36-36c3.9-3.9,3.9-10.2,0-14.1c-3.9-3.9-10.2-3.9-14.1,0
	L136,393.3v-51.7l55.6-55.6h51.7l-21.8,21.8c-3.9,3.9-3.9,10.2,0,14.1c2,2,4.5,2.9,7.1,2.9c2.6,0,5.1-1,7.1-2.9l36-36h51.7
	L143.6,465.7c-4.4-1.1-7.6-5-7.6-9.7L136,421.6z M366,466h-34.4l44.4-44.4V456C376,461.5,371.5,466,366,466L366,466z M491.6,246.2
	c-0.7,2.6-2.3,4.8-4.6,6.1l-91,52.5v-23.1l89.7-51.8l5,8.7C492,241,492.3,243.6,491.6,246.2z"/>
<path class="st0" d="M209.8,110.8l-2.9,22.1c-0.8,4.2-0.2,8.5,1.7,12.4c3.5,7.1,10.6,11.2,18,11.2c2.9,0,5.9-0.6,8.7-2l20.5-10
	l21.1,10c3.5,1.7,7.4,2.3,11.3,1.7c10.9-1.5,18.6-11.6,17-22.5l-3.2-22.6l15.5-16.3c3.1-3,5.1-6.7,5.8-10.9
	c0.9-5.3-0.3-10.6-3.3-14.9c-3.1-4.4-7.7-7.3-12.9-8.2l-22.4-4l-11.1-20.5c0,0,0,0,0,0c-1.9-3.4-4.7-6.2-8.1-8.1
	c-9.7-5.2-21.8-1.5-27,8.2l-10.7,20.1l-22.5,4.2c-4,0.6-7.7,2.5-10.7,5.3c-3.8,3.7-6,8.7-6.1,14c-0.1,5.3,1.9,10.4,5.6,14.2
	L209.8,110.8z M208.7,80.5l27.4-5.1c3-0.6,5.6-2.4,7-5.1L256,46l13.4,24.7c1.5,2.7,4,4.5,7,5.1l27.2,4.8c-0.1,0.1-0.3,0.3-0.4,0.4
	l-19,20c-2.1,2.2-3.1,5.2-2.6,8.3l3.8,27.3L260,124.5c-2.7-1.3-5.9-1.3-8.7,0l-24.8,12.1c0-0.2,0.1-0.5,0.1-0.7l3.6-27.2
	c0.4-3-0.6-6-2.7-8.2l-19.2-19.8C208.5,80.6,208.6,80.6,208.7,80.5L208.7,80.5z"/>
<path class="st1" d="M246.5,183.6V230c0,5.5,4.5,10,10,10c5.5,0,10-4.5,10-10v-46.4c0-5.5-4.5-10-10-10
	C251,173.6,246.5,178.1,246.5,183.6L246.5,183.6z"/>
<path class="st1" d="M125.5,153.4c-2.8,4.8-1.1,10.9,3.7,13.7c21.3,12.3,35.2,41.9,36.4,63.5c0.3,5.3,4.7,9.5,10,9.5
	c0.2,0,0.4,0,0.6,0c5.5-0.3,9.7-5,9.4-10.5c-1.5-27.2-17.9-63.3-46.3-79.7C134.4,147,128.3,148.6,125.5,153.4L125.5,153.4z"/>
<path class="st0" d="M36.5,130.1l20.7,8.1l8,20.7c1.8,4.8,5.6,8.6,10.4,10.4c2.2,0.8,4.4,1.2,6.5,1.2c7.3,0,14.2-4.4,17-11.6
	l8.1-20.7l20.7-8c4.8-1.8,8.6-5.6,10.4-10.4c1.8-4.5,1.6-9.5-0.3-13.9c-2-4.4-5.5-7.9-10.1-9.6l-20.7-8.1l-8-20.7
	c-1.8-4.8-5.6-8.6-10.4-10.4c-9.4-3.6-19.9,1.1-23.5,10.4l-8.1,20.7l-20.7,8c-4.8,1.8-8.6,5.6-10.4,10.4c-1.8,4.5-1.6,9.5,0.3,13.9
	C28.4,124.9,32,128.4,36.5,130.1L36.5,130.1z M68.6,105.2c2.6-1,4.7-3.1,5.7-5.7l8-20.5l8,20.5c1,2.6,3.1,4.7,5.7,5.7l20.5,8
	l-20.5,8c-2.6,1-4.7,3.1-5.7,5.7l-8,20.5l-8-20.5c-1-2.6-3.1-4.7-5.7-5.7l-20.5-8L68.6,105.2z"/>
<path class="st1" d="M336,240c0.2,0,0.4,0,0.6,0c5.3,0,9.7-4.1,10-9.5c1.2-21.6,15.1-51.2,36.4-63.5c4.8-2.8,6.4-8.9,3.7-13.7
	c-2.8-4.8-8.9-6.4-13.7-3.7c-28.5,16.4-44.8,52.5-46.3,79.7C326.2,235,330.4,239.7,336,240L336,240z"/>
<path class="st0" d="M384,130.1l20.7,8.1l8,20.7c2.8,7.2,9.7,11.6,17,11.6c2.2,0,4.4-0.4,6.5-1.2c4.8-1.8,8.6-5.6,10.4-10.4
	l8.1-20.7l20.7-8c9.4-3.6,14-14.2,10.4-23.5c-1.8-4.8-5.6-8.6-10.4-10.4l-20.7-8.1l-8-20.7c-3.6-9.4-14.2-14-23.5-10.4
	c-4.8,1.8-8.6,5.6-10.4,10.4l-8.1,20.7l-20.7,8c-9.4,3.6-14,14.2-10.4,23.5C375.5,124.5,379.3,128.3,384,130.1L384,130.1z
	 M416.1,105.2c2.6-1,4.7-3.1,5.7-5.7l8-20.5l8,20.5c1,2.6,3.1,4.7,5.7,5.7l20.5,8l-20.5,8c-2.6,1-4.7,3.1-5.7,5.7l-8,20.5l-8-20.5
	c-1-2.6-3.1-4.7-5.7-5.7l-20.5-8L416.1,105.2z"/>
<path class="st1" d="M196.7,356.7c5.5,0,10-4.5,10-10c0-5.5-4.5-10-10-10h0c-5.5,0-10,4.5-10,10
	C186.7,352.2,191.2,356.7,196.7,356.7z"/>
</svg>
