<svg xmlns="http://www.w3.org/2000/svg" viewBox="0 0 512 443.73"><defs><style>.cls-1{fill:#d3d3d3;}.cls-2{fill:#ec5242;}</style></defs><title>pro_1</title><g id="Layer_2" data-name="Layer 2"><g id="Layer_1-2" data-name="Layer 1"><path class="cls-1" d="M503.47,392.54H332.8v-76.8a59.83,59.83,0,0,0-51.2-59.13v-9.29a42.29,42.29,0,0,0,16.15-25.45h43.58v42.66a8.53,8.53,0,0,0,5.27,7.89,8.39,8.39,0,0,0,3.27.65,8.52,8.52,0,0,0,6-2.5l48.7-48.7h13.53A42.72,42.72,0,0,0,460.8,179.2V42.67A42.72,42.72,0,0,0,418.13,0H93.87A42.72,42.72,0,0,0,51.2,42.67V179.2a42.72,42.72,0,0,0,42.67,42.67H214.25a42.29,42.29,0,0,0,16.15,25.45v9.29a59.83,59.83,0,0,0-51.2,59.13v76.8H153.6v-25.6a8.53,8.53,0,0,0-8.54-8.54h-8.53V318.58l15.12-20.11a16.31,16.31,0,0,0,1.95.2,17.08,17.08,0,1,0-15.68-10.34l-16.75,22.28a8.55,8.55,0,0,0-1.71,5.12V358.4h-8.53a8.53,8.53,0,0,0-8.54,8.54v25.6H8.54A8.54,8.54,0,0,0,0,401.07V435.2a8.53,8.53,0,0,0,8.54,8.54H503.47A8.53,8.53,0,0,0,512,435.2V401.07A8.53,8.53,0,0,0,503.47,392.54ZM268.74,235.42a8.53,8.53,0,0,0-4.21,7.36V256H247.46V242.77a8.53,8.53,0,0,0-4.21-7.36,25.51,25.51,0,0,1-12.86-22.09V196.27a25.6,25.6,0,0,1,51.2,0v17.07A25.51,25.51,0,0,1,268.74,235.42Zm-4.66,128.43L256,371.93l-8.08-8.08L255,307.2h2Zm-14.22-90.79h12.27l-4.27,17.07h-3.74ZM68.27,179.2V42.67a25.6,25.6,0,0,1,25.6-25.6H418.13a25.6,25.6,0,0,1,25.6,25.6V179.2a25.6,25.6,0,0,1-25.6,25.6H401.07a8.52,8.52,0,0,0-6,2.5L358.4,243.93v-30.6a8.53,8.53,0,0,0-8.54-8.53h-51.2v-8.54a42.67,42.67,0,0,0-85.33,0v8.54H93.87A25.6,25.6,0,0,1,68.27,179.2Zm128,136.54a42.62,42.62,0,0,1,36.16-42l6.38,25.47-8.34,66.68A8.54,8.54,0,0,0,232.9,373L250,390A8.54,8.54,0,0,0,262,390L279.1,373a8.53,8.53,0,0,0,2.43-7.09L273.2,299.2l6.38-25.47a42.62,42.62,0,0,1,36.16,42v76.8H196.27Zm-76.8,59.73h17.07v17.07H119.47Zm375.46,51.2H17.07V409.6H494.93Z"/><path class="cls-2" d="M256,119.46a25.6,25.6,0,1,0-25.6-25.6A25.6,25.6,0,0,0,256,119.46Zm0-34.13a8.54,8.54,0,1,1-8.54,8.54A8.54,8.54,0,0,1,256,85.33Z"/><path class="cls-2" d="M341.33,119.46a25.6,25.6,0,1,0-25.6-25.6A25.6,25.6,0,0,0,341.33,119.46Zm0-34.13a8.54,8.54,0,1,1-8.53,8.54A8.54,8.54,0,0,1,341.33,85.33Z"/><path class="cls-2" d="M170.67,68.27a25.6,25.6,0,1,0,25.6,25.6A25.6,25.6,0,0,0,170.67,68.27Zm0,34.13a8.53,8.53,0,1,1,8.53-8.53A8.53,8.53,0,0,1,170.67,102.4Z"/></g></g></svg>