<?xml version="1.0" encoding="utf-8"?>
<!-- Generator: Adobe Illustrator 21.0.0, SVG Export Plug-In . SVG Version: 6.00 Build 0)  -->
<svg version="1.1" id="Capa_1" xmlns="http://www.w3.org/2000/svg" xmlns:xlink="http://www.w3.org/1999/xlink" x="0px" y="0px"
	 viewBox="0 0 512 512" style="enable-background:new 0 0 512 512;" xml:space="preserve">
<style type="text/css">
	.st0{fill:#EC5242;}
	.st1{fill:#D3D3D3;}
</style>
<g>
	<path class="st0" d="M490.1,203.3c-3.4-3-7.9-4.4-12.4-3.8l-49.7,6.2c-7.9,1-13.8,7.7-13.8,15.7v44.9c-2.8-1.1-5.9-1.8-9.1-1.8
		c-13.3,0-24.1,10.8-24.1,24.1s10.8,24.1,24.1,24.1c13.3,0,24.1-10.8,24.1-24.1v-38.9l51.3-6.4v23.1c-2.8-1.1-5.9-1.8-9.1-1.8
		c-13.3,0-24.1,10.8-24.1,24.1s10.8,24.1,24.1,24.1c13.3,0,24.1-10.8,24.1-24.1v-73.4C495.4,210.6,493.5,206.3,490.1,203.3
		L490.1,203.3z M405.1,297.6c-5,0-9.1-4.1-9.1-9.1s4.1-9.1,9.1-9.1c5,0,9.1,4.1,9.1,9.1C414.2,293.6,410.1,297.6,405.1,297.6z
		 M429.2,234.5v-13.2c0-0.4,0.3-0.7,0.7-0.8l49.7-6.2c0.2,0,0.4,0,0.6,0.2c0.2,0.2,0.3,0.4,0.3,0.6v13L429.2,234.5z M471.4,297.6
		c-5,0-9.1-4.1-9.1-9.1s4.1-9.1,9.1-9.1c5,0,9.1,4.1,9.1,9.1S476.4,297.6,471.4,297.6z"/>
	<path class="st0" d="M125.6,203.3c-3.4-3-7.9-4.4-12.4-3.8l-49.7,6.2c-7.9,1-13.8,7.7-13.8,15.7v44.9c-2.8-1.1-5.9-1.8-9.1-1.8
		c-13.3,0-24.1,10.8-24.1,24.1s10.8,24.1,24.1,24.1c13.3,0,24.1-10.8,24.1-24.1v-38.9l51.3-6.4v23.1c-2.8-1.1-5.9-1.8-9.1-1.8
		c-13.3,0-24.1,10.8-24.1,24.1s10.8,24.1,24.1,24.1c13.3,0,24.1-10.8,24.1-24.1v-73.4C131,210.6,129,206.3,125.6,203.3L125.6,203.3z
		 M40.6,297.6c-5,0-9.1-4.1-9.1-9.1s4.1-9.1,9.1-9.1c5,0,9.1,4.1,9.1,9.1S45.6,297.6,40.6,297.6z M64.7,234.5v-13.2
		c0-0.4,0.3-0.7,0.7-0.8l49.7-6.2c0.2,0,0.4,0,0.6,0.2c0.2,0.2,0.3,0.4,0.3,0.6v13L64.7,234.5z M106.9,297.6c-5,0-9.1-4.1-9.1-9.1
		s4.1-9.1,9.1-9.1s9.1,4.1,9.1,9.1S111.9,297.6,106.9,297.6z"/>
	<path class="st1" d="M479.6,463.9h-58c-5,0-9.1-4.1-9.1-9.1v-16.6c0-15.5-6.1-30-17.2-40.8c-11.1-10.9-25.7-16.7-41.1-16.4
		c-30.9,0.6-56.1,26.6-56.1,58v15.7c0,2.5-1,4.8-2.8,6.6c-1.8,1.7-4.2,2.6-6.7,2.5c-4.7-0.2-8.6-4.5-8.6-9.5v-25.2h1.1
		c8.5,0,15.5-7,15.5-15.5v-18.6c9.6-2.7,16.9-11.3,17.5-21.8l11.8-205.1c12.8-12.9,21.7-28.7,25.9-46.2c6.4-1.9,11.1-7.8,11.1-14.9
		V90c0-7-4.7-13-11.1-14.9C341.1,31.3,301.7,0,256,0c-18.7,0-36.8,5.2-52.6,15.2c-3.5,2.2-4.6,6.8-2.3,10.3
		c2.2,3.5,6.8,4.5,10.3,2.3C224.8,19.4,240.2,15,256,15c37.3,0,69.6,24.6,80.1,59.5H175.9c3.1-10.4,8.3-20.1,15.1-28.6
		c2.6-3.2,2.1-7.9-1.1-10.5c-3.2-2.6-7.9-2.1-10.6,1.1c-9.2,11.3-15.8,24.6-19.2,38.7c-6.4,1.9-11.1,7.8-11.1,14.9v17.1
		c0,7,4.7,13,11.1,14.9c4.2,17.5,13.1,33.3,25.9,46.2l8.4,146.2c0.2,4.1,3.8,7.3,7.9,7.1c4.1-0.2,7.3-3.8,7.1-7.9l-5.7-99.7h104.4
		l-9.1,158.7c-0.3,4.8-4.3,8.5-9.1,8.5h-68.1c-4.8,0-8.8-3.8-9.1-8.5l-1.7-28.9c-0.2-4.1-3.8-7.3-7.9-7.1c-4.1,0.2-7.3,3.8-7.1,7.9
		l1.7,28.9c0.6,10.4,7.8,19,17.5,21.8v18.6c0,8.5,7,15.5,15.5,15.5h1.1v25.6c0,15.5,6.1,30,17.2,40.8c10.8,10.6,25,16.4,40,16.4
		c0.4,0,0.7,0,1.1,0c30.9-0.6,56.1-26.6,56.1-58v-15.7c0-2.5,1-4.8,2.8-6.6c1.8-1.7,4.2-2.6,6.7-2.5c4.7,0.2,8.6,4.5,8.6,9.5v16.1
		c0,31.5,25.7,57.2,57.2,57.2h58c8.7,0,15.8-7.1,15.8-15.8v-16.6C495.4,470.9,488.4,463.9,479.6,463.9L479.6,463.9z M164.6,107.7
		c-0.3,0-0.5-0.2-0.5-0.5V90c0-0.3,0.2-0.5,0.5-0.5h1.8c0,0,0,0,0,0c0,0,0,0,0,0h179.2c0,0,0,0,0,0s0,0,0,0h1.8
		c0.3,0,0.5,0.2,0.5,0.5v17.1c0,0.3-0.2,0.5-0.5,0.5H164.6z M175.9,122.7h160.2c-3.9,13.1-10.9,24.9-20.6,34.7h-119
		C186.8,147.6,179.8,135.7,175.9,122.7L175.9,122.7z M202.9,198.8l-1.5-26.4h109.2l-1.5,26.4H202.9z M230.4,413.7V396h51.3v17.6
		c0,0.3-0.2,0.5-0.5,0.5h-50.3C230.6,414.2,230.4,413.9,230.4,413.7L230.4,413.7z M480.4,496.2c0,0.4-0.4,0.8-0.8,0.8h-58
		c-23.3,0-42.2-18.9-42.2-42.2v-16.1c0-13.1-10-23.9-22.9-24.5c-6.7-0.3-13,2-17.8,6.6c-4.8,4.5-7.5,10.9-7.5,17.4V454
		c0,23.3-18.6,42.6-41.4,43c-11.4,0.2-22.2-4.1-30.4-12.1c-8.2-8-12.7-18.7-12.7-30.1v-25.6h18.1v25.2c0,13.1,10,23.9,22.9,24.5
		c6.6,0.3,13-2,17.8-6.6c4.8-4.5,7.5-10.9,7.5-17.4v-15.7c0-23.3,18.6-42.6,41.4-43c11.4-0.3,22.2,4.1,30.4,12.1
		c8.2,8,12.7,18.7,12.7,30.1v16.6c0,13.3,10.8,24.1,24.1,24.1h58c0.4,0,0.8,0.4,0.8,0.8L480.4,496.2z"/>
	<path class="st1" d="M264.6,296.6c8.5,0,15.5-7,15.5-15.5v-33.7c0-8.5-7-15.5-15.5-15.5h-17.1c-8.5,0-15.5,7-15.5,15.5v33.7
		c0,8.5,7,15.5,15.5,15.5H264.6z M246.9,281.1v-33.7c0-0.3,0.2-0.5,0.5-0.5h17.1c0.3,0,0.5,0.2,0.5,0.5v33.7c0,0.3-0.2,0.5-0.5,0.5
		h-17.1C247.2,281.6,246.9,281.4,246.9,281.1z"/>
	<path class="st1" d="M73.8,64.7h9.1v9.1c0,4.1,3.4,7.5,7.5,7.5s7.5-3.4,7.5-7.5v-9.1h9.1c4.1,0,7.5-3.4,7.5-7.5s-3.4-7.5-7.5-7.5
		h-9.1v-9.1c0-4.1-3.4-7.5-7.5-7.5s-7.5,3.4-7.5,7.5v9.1h-9.1c-4.1,0-7.5,3.4-7.5,7.5S69.6,64.7,73.8,64.7z"/>
	<path class="st1" d="M421.7,81.3c13.3,0,24.1-10.8,24.1-24.1s-10.8-24.1-24.1-24.1c-13.3,0-24.1,10.8-24.1,24.1
		S408.4,81.3,421.7,81.3z M421.7,48.1c5,0,9.1,4.1,9.1,9.1c0,5-4.1,9.1-9.1,9.1c-5,0-9.1-4.1-9.1-9.1
		C412.6,52.2,416.7,48.1,421.7,48.1z"/>
</g>
</svg>
