<svg id="Capa_1" enable-background="new 0 0 512 512" height="512" viewBox="0 0 512 512" width="512" xmlns="http://www.w3.org/2000/svg"><g><path d="m490.096 203.303c-3.393-2.995-7.912-4.391-12.404-3.831l-49.701 6.213c-7.881.986-13.825 7.72-13.825 15.662v44.95c-2.8-1.143-5.86-1.779-9.066-1.779-13.271 0-24.067 10.796-24.067 24.066s10.796 24.066 24.067 24.066c13.27 0 24.066-10.796 24.066-24.066v-38.938l51.267-6.408v23.058c-2.8-1.143-5.86-1.779-9.066-1.779-13.271 0-24.067 10.796-24.067 24.066s10.796 24.066 24.067 24.066c13.27 0 24.066-10.796 24.066-24.066v-73.45c0-4.524-1.945-8.836-5.337-11.83zm-84.996 94.347c-4.999 0-9.067-4.067-9.067-9.066s4.067-9.066 9.067-9.066c4.999 0 9.066 4.067 9.066 9.066.001 4.999-4.067 9.066-9.066 9.066zm24.067-63.121v-13.183c0-.395.295-.729.686-.777l49.699-6.213c.23-.03.44.036.617.191.176.155.265.352.265.587v12.987zm42.2 63.121c-5 0-9.067-4.067-9.067-9.066s4.067-9.066 9.067-9.066c4.999 0 9.066 4.067 9.066 9.066s-4.067 9.066-9.066 9.066z"/><path d="m125.63 203.303c-3.392-2.995-7.912-4.386-12.404-3.831l-49.701 6.213c-7.881.986-13.825 7.72-13.825 15.662v44.95c-2.8-1.143-5.86-1.779-9.067-1.779-13.27 0-24.066 10.796-24.066 24.066s10.796 24.066 24.066 24.066c13.271 0 24.067-10.796 24.067-24.066v-38.938l51.267-6.408v23.058c-2.8-1.143-5.86-1.779-9.067-1.779-13.27 0-24.066 10.796-24.066 24.066s10.796 24.066 24.066 24.066c13.271 0 24.067-10.796 24.067-24.066v-73.45c0-4.524-1.946-8.836-5.337-11.83zm-84.997 94.347c-4.999 0-9.066-4.067-9.066-9.066s4.067-9.066 9.066-9.066c5 0 9.067 4.067 9.067 9.066s-4.067 9.066-9.067 9.066zm24.067-63.121v-13.183c0-.395.295-.729.686-.777l49.699-6.213c.236-.032.441.035.617.191.175.155.265.352.265.587v12.987zm42.2 63.121c-4.999 0-9.066-4.067-9.066-9.066s4.067-9.066 9.066-9.066 9.067 4.067 9.067 9.066-4.068 9.066-9.067 9.066z"/><path d="m479.65 463.867h-57.983c-4.999 0-9.066-4.067-9.066-9.067v-16.566c0-15.464-6.094-29.959-17.159-40.815-11.06-10.853-25.67-16.654-41.144-16.374-30.932.587-56.097 26.615-56.097 58.023v15.732c0 2.5-1.003 4.831-2.824 6.564-1.817 1.73-4.197 2.617-6.709 2.49-4.742-.233-8.601-4.511-8.601-9.535v-25.152h1.064c8.547 0 15.5-6.953 15.5-15.5v-18.553c9.623-2.736 16.851-11.321 17.451-21.769l11.774-205.137c12.82-12.851 21.698-28.67 25.945-46.171 6.409-1.902 11.1-7.837 11.1-14.854v-17.133c0-7.018-4.692-12.953-11.101-14.855-10.666-43.891-50.079-75.195-95.8-75.195-18.67 0-36.847 5.243-52.566 15.163-3.503 2.211-4.55 6.843-2.34 10.346 2.21 3.501 6.842 4.55 10.346 2.34 13.319-8.406 28.727-12.849 44.56-12.849 37.295 0 69.634 24.56 80.089 59.55h-160.176c3.124-10.382 8.269-20.143 15.146-28.61 2.611-3.215 2.122-7.938-1.093-10.55-3.216-2.613-7.938-2.123-10.55 1.093-9.198 11.324-15.778 24.614-19.223 38.715-6.405 1.904-11.092 7.838-11.092 14.852v17.134c0 7.018 4.691 12.952 11.099 14.854 4.247 17.502 13.125 33.321 25.945 46.171l8.387 146.184c.237 4.135 3.765 7.308 7.917 7.058 4.135-.237 7.295-3.781 7.058-7.917l-5.722-99.733h104.429l-9.108 158.686c-.275 4.793-4.251 8.547-9.052 8.547h-68.113c-4.801 0-8.777-3.755-9.052-8.548l-1.66-28.937c-.238-4.136-3.771-7.311-7.917-7.058-4.135.237-7.295 3.781-7.058 7.917l1.66 28.936c.6 10.449 7.828 19.033 17.451 21.77v18.553c0 8.547 6.953 15.5 15.5 15.5h1.069v25.633c0 15.463 6.094 29.958 17.159 40.815 10.795 10.592 24.971 16.386 40.029 16.385.371 0 .744-.003 1.116-.01 30.932-.588 56.097-26.617 56.097-58.024v-15.732c0-2.5 1.003-4.831 2.824-6.564 1.817-1.729 4.199-2.619 6.707-2.49 4.743.234 8.602 4.512 8.602 9.535v16.085c0 31.54 25.66 57.2 57.2 57.2h57.983c8.703 0 15.783-7.08 15.783-15.783v-16.567c-.001-8.703-7.081-15.783-15.784-15.783zm-315.05-356.183c-.276 0-.5-.225-.5-.5v-17.134c0-.275.224-.5.5-.5h1.773c.007 0 .014.001.022.001.007 0 .015-.001.022-.001h179.167c.007 0 .015.001.022.001s.014-.001.022-.001h1.773c.276 0 .5.225.5.5v17.134c0 .275-.224.5-.5.5zm11.301 15h160.197c-3.897 13.056-10.911 24.886-20.622 34.699h-118.951c-9.712-9.812-16.726-21.642-20.624-34.699zm27.023 76.116-1.516-26.417h109.183l-1.516 26.417zm27.44 214.867v-17.634h51.267v17.634c0 .275-.224.5-.5.5h-50.267c-.276 0-.5-.225-.5-.5zm250.069 82.55c0 .432-.352.783-.783.783h-57.983c-23.269 0-42.2-18.931-42.2-42.2v-16.086c0-13.115-10.042-23.884-22.862-24.518-6.653-.315-12.967 2.019-17.789 6.607-4.755 4.526-7.482 10.879-7.482 17.43v15.732c0 23.292-18.564 42.594-41.381 43.026-11.419.234-22.192-4.075-30.355-12.084-8.167-8.013-12.664-18.706-12.664-30.108v-25.633h18.134v25.152c0 13.116 10.043 23.886 22.861 24.518 6.647.318 12.968-2.019 17.79-6.607 4.755-4.526 7.482-10.879 7.482-17.43v-15.732c0-23.292 18.564-42.594 41.382-43.025 11.414-.266 22.191 4.074 30.353 12.082 8.167 8.014 12.665 18.706 12.665 30.109v16.567c0 13.271 10.796 24.067 24.066 24.067h57.983c.432 0 .783.352.783.783z"/><path d="m264.567 296.633c8.547 0 15.5-6.953 15.5-15.5v-33.699c0-8.547-6.953-15.5-15.5-15.5h-17.134c-8.547 0-15.5 6.953-15.5 15.5v33.699c0 8.547 6.953 15.5 15.5 15.5zm-17.634-15.5v-33.699c0-.275.224-.5.5-.5h17.134c.276 0 .5.225.5.5v33.699c0 .275-.224.5-.5.5h-17.134c-.276 0-.5-.225-.5-.5z"/><path d="m73.767 64.7h9.067v9.066c0 4.143 3.358 7.5 7.5 7.5s7.5-3.357 7.5-7.5v-9.066h9.066c4.142 0 7.5-3.357 7.5-7.5s-3.358-7.5-7.5-7.5h-9.066v-9.067c0-4.143-3.358-7.5-7.5-7.5s-7.5 3.357-7.5 7.5v9.067h-9.067c-4.142 0-7.5 3.357-7.5 7.5s3.358 7.5 7.5 7.5z"/><path d="m421.667 81.267c13.271 0 24.067-10.796 24.067-24.066s-10.796-24.067-24.067-24.067c-13.27 0-24.066 10.797-24.066 24.067s10.796 24.066 24.066 24.066zm0-33.134c5 0 9.067 4.067 9.067 9.067 0 4.999-4.067 9.066-9.067 9.066-4.999 0-9.066-4.067-9.066-9.066-.001-5 4.067-9.067 9.066-9.067z"/></g></svg>