<?xml version="1.0" encoding="utf-8"?>
<!-- Generator: Adobe Illustrator 21.0.0, SVG Export Plug-In . SVG Version: 6.00 Build 0)  -->
<svg version="1.1" id="Layer_1" xmlns:svgjs="http://svgjs.com/svgjs"
	 xmlns="http://www.w3.org/2000/svg" xmlns:xlink="http://www.w3.org/1999/xlink" x="0px" y="0px" viewBox="0 0 512 512"
	 style="enable-background:new 0 0 512 512;" xml:space="preserve">
<style type="text/css">
	.st0{fill:#D3D3D3;}
	.st1{fill:#EC5242;}
</style>
<path class="st0" d="M503.5,392.5H332.8v-76.8c0-29.7-21.8-54.8-51.2-59.1v-9.3c8.3-6.2,14.1-15.3,16.2-25.5h43.6v42.7
	c0,3.5,2.1,6.6,5.3,7.9c1,0.4,2.1,0.7,3.3,0.6c2.3,0,4.4-0.9,6-2.5l48.7-48.7h13.5c23.6,0,42.6-19.1,42.7-42.7V42.7
	c0-23.6-19.1-42.6-42.7-42.7H93.9C70.3,0,51.2,19.1,51.2,42.7v136.5c0,23.6,19.1,42.6,42.7,42.7h120.4c2.1,10.2,7.8,19.2,16.2,25.5
	v9.3c-29.4,4.3-51.2,29.4-51.2,59.1v76.8h-25.6v-25.6c0-4.7-3.8-8.5-8.5-8.5h-8.5v-39.8l15.1-20.1c0.6,0.1,1.3,0.2,1.9,0.2
	c9.4,0,17.1-7.6,17.1-17.1s-7.6-17.1-17.1-17.1s-17.1,7.6-17.1,17.1c0,2.3,0.5,4.6,1.4,6.7l-16.8,22.3c-1.1,1.5-1.7,3.3-1.7,5.1
	v42.7h-8.5c-4.7,0-8.5,3.8-8.5,8.5v25.6H8.5c-4.7,0-8.5,3.8-8.5,8.5v34.1c0,4.7,3.8,8.5,8.5,8.5h494.9c4.7,0,8.5-3.8,8.5-8.5v-34.1
	C512,396.4,508.2,392.5,503.5,392.5z M268.7,235.4c-2.6,1.5-4.2,4.3-4.2,7.4V256h-17.1v-13.2c0-3-1.6-5.8-4.2-7.4
	c-7.9-4.5-12.8-13-12.9-22.1v-17.1c0-14.1,11.5-25.6,25.6-25.6c14.1,0,25.6,11.5,25.6,25.6v17.1
	C281.6,222.5,276.7,230.9,268.7,235.4z M264.1,363.9l-8.1,8.1l-8.1-8.1l7.1-56.7h2L264.1,363.9z M249.9,273.1h12.3l-4.3,17.1h-3.7
	L249.9,273.1z M68.3,179.2V42.7c0-14.1,11.5-25.6,25.6-25.6h324.3c14.1,0,25.6,11.5,25.6,25.6v136.5c0,14.1-11.5,25.6-25.6,25.6
	h-17.1c-2.3,0-4.4,0.9-6,2.5l-36.6,36.6v-30.6c0-4.7-3.8-8.5-8.5-8.5h-51.2v-8.5c0-23.6-19.1-42.7-42.7-42.7
	c-23.6,0-42.7,19.1-42.7,42.7v8.5H93.9C79.7,204.8,68.3,193.3,68.3,179.2z M196.3,315.7c0.1-21,15.4-38.8,36.2-42l6.4,25.5
	l-8.3,66.7c-0.3,2.6,0.6,5.2,2.4,7.1L250,390c3.3,3.3,8.7,3.3,12.1,0l17.1-17.1c1.9-1.9,2.8-4.5,2.4-7.1l-8.3-66.7l6.4-25.5
	c20.8,3.2,36.1,21,36.2,42v76.8H196.3V315.7z M119.5,375.5h17.1v17.1h-17.1V375.5z M494.9,426.7H17.1v-17.1h477.9V426.7z"/>
<path class="st1" d="M256,119.5c14.1,0,25.6-11.5,25.6-25.6c0-14.1-11.5-25.6-25.6-25.6c-14.1,0-25.6,11.5-25.6,25.6
	C230.4,108,241.9,119.5,256,119.5z M256,85.3c4.7,0,8.5,3.8,8.5,8.5c0,4.7-3.8,8.5-8.5,8.5c-4.7,0-8.5-3.8-8.5-8.5
	S251.3,85.3,256,85.3z"/>
<path class="st1" d="M341.3,119.5c14.1,0,25.6-11.5,25.6-25.6c0-14.1-11.5-25.6-25.6-25.6c-14.1,0-25.6,11.5-25.6,25.6
	C315.7,108,327.2,119.5,341.3,119.5z M341.3,85.3c4.7,0,8.5,3.8,8.5,8.5c0,4.7-3.8,8.5-8.5,8.5c-4.7,0-8.5-3.8-8.5-8.5
	S336.6,85.3,341.3,85.3z"/>
<path class="st1" d="M170.7,68.3c-14.1,0-25.6,11.5-25.6,25.6c0,14.1,11.5,25.6,25.6,25.6c14.1,0,25.6-11.5,25.6-25.6
	C196.3,79.7,184.8,68.3,170.7,68.3z M170.7,102.4c-4.7,0-8.5-3.8-8.5-8.5c0-4.7,3.8-8.5,8.5-8.5c4.7,0,8.5,3.8,8.5,8.5
	C179.2,98.6,175.4,102.4,170.7,102.4z"/>
</svg>
