<?xml version="1.0"?>
<svg xmlns="http://www.w3.org/2000/svg" xmlns:xlink="http://www.w3.org/1999/xlink" xmlns:svgjs="http://svgjs.com/svgjs" version="1.1" width="512" height="512" x="0" y="0" viewBox="0 0 512.00065 512" style="enable-background:new 0 0 512 512" xml:space="preserve" class=""><g><path xmlns="http://www.w3.org/2000/svg" d="m503.46875 392.535156h-170.667969v-76.800781c-.039062-29.683594-21.828125-54.847656-51.199219-59.128906v-9.285157c8.328126-6.210937 14.078126-15.273437 16.152344-25.453124h43.578125v42.664062c0 3.453125 2.078125 6.566406 5.265625 7.886719 1.035156.433593 2.148438.652343 3.269532.648437 2.261718 0 4.433593-.898437 6.03125-2.5l48.703124-48.699218h13.53125c23.554688-.027344 42.640626-19.113282 42.667969-42.667969v-136.53125c-.027343-23.554688-19.113281-42.6406252-42.667969-42.667969h-324.265624c-23.550782.0273438-42.640626 19.113281-42.667969 42.667969v136.53125c.03125 23.554687 19.117187 42.640625 42.667969 42.667969h120.378906c2.074218 10.179687 7.824218 19.242187 16.152344 25.453124v9.285157c-29.367188 4.28125-51.160157 29.445312-51.199219 59.128906v76.800781h-25.597657v-25.601562c0-4.714844-3.820312-8.535156-8.535156-8.535156h-8.53125v-39.816407l15.117188-20.113281c.644531.105469 1.296875.171875 1.949218.199219 9.425782.003906 17.066407-7.636719 17.070313-17.0625s-7.632813-17.070313-17.058594-17.074219-17.070312 7.636719-17.074219 17.0625c0 2.316406.472657 4.609375 1.386719 6.738281l-16.753906 22.28125c-1.105469 1.476563-1.707031 3.273438-1.707031 5.117188v42.667969h-8.53125c-4.714844 0-8.535156 3.820312-8.535156 8.535156v25.597656h-93.863282c-4.714844.003906-8.535156 3.824219-8.535156 8.535156v34.132813c0 4.714843 3.820312 8.535156 8.535156 8.535156h494.933594c4.710938 0 8.53125-3.820313 8.53125-8.535156v-34.132813c0-4.710937-3.820312-8.53125-8.53125-8.53125zm-234.726562-157.117187c-2.609376 1.53125-4.207032 4.332031-4.207032 7.355469v13.226562h-17.070312v-13.226562c0-3.023438-1.597656-5.824219-4.207032-7.355469-7.929687-4.527344-12.835937-12.953125-12.859374-22.085938v-17.066406c0-14.136719 11.460937-25.597656 25.601562-25.597656 14.136719 0 25.601562 11.460937 25.601562 25.597656v17.066406c-.023437 9.132813-4.929687 17.558594-12.859374 22.085938zm-4.660157 128.433593-8.082031 8.082032-8.082031-8.082032 7.082031-56.652343h1.996094zm-14.21875-90.785156h12.273438l-4.265625 17.066406h-3.738282zm-181.597656-93.867187v-136.53125c0-14.140625 11.460937-25.601563 25.601563-25.601563h324.265624c14.140626 0 25.601563 11.460938 25.601563 25.601563v136.53125c0 14.140625-11.460937 25.601562-25.601563 25.601562h-17.066406c-2.261718 0-4.433594.898438-6.03125 2.5l-36.632812 36.632813v-30.601563c0-4.710937-3.820313-8.53125-8.535156-8.53125h-51.199219v-8.535156c0-23.5625-19.101563-42.664063-42.667969-42.664063-23.5625 0-42.664062 19.101563-42.664062 42.664063v8.535156h-119.46875c-14.140626 0-25.601563-11.460937-25.601563-25.601562zm128 136.535156c.058594-21 15.40625-38.832031 36.164063-42.011719l6.375 25.472656-8.335938 66.679688c-.328125 2.613281.570312 5.230469 2.429688 7.09375l17.066406 17.066406c3.335937 3.328125 8.734375 3.328125 12.066406 0l17.066406-17.066406c1.863282-1.863281 2.761719-4.480469 2.433594-7.09375l-8.335938-66.679688 6.375-25.472656c20.757813 3.179688 36.105469 21.007813 36.164063 42.011719v76.796875h-119.46875zm-76.796875 59.734375h17.066406v17.066406h-17.066406zm375.464844 51.199219h-477.867188v-17.066407h477.867188zm0 0" fill="#ffffff" data-original="#000000" style="" class=""/><path xmlns="http://www.w3.org/2000/svg" d="m256 119.464844c14.140625 0 25.601562-11.460938 25.601562-25.597656 0-14.140626-11.460937-25.601563-25.601562-25.601563-14.136719 0-25.601562 11.460937-25.601562 25.601563 0 14.136718 11.464843 25.597656 25.601562 25.597656zm0-34.132813c4.714844 0 8.535156 3.824219 8.535156 8.535157 0 4.714843-3.820312 8.535156-8.535156 8.535156-4.710938 0-8.535156-3.820313-8.535156-8.535156 0-4.714844 3.824218-8.535157 8.535156-8.535157zm0 0" fill="#ffffff" data-original="#000000" style="" class=""/><path xmlns="http://www.w3.org/2000/svg" d="m341.332031 119.464844c14.140625 0 25.601563-11.460938 25.601563-25.597656 0-14.140626-11.460938-25.601563-25.601563-25.601563-14.136719 0-25.597656 11.460937-25.597656 25.601563 0 14.136718 11.460937 25.597656 25.597656 25.597656zm0-34.132813c4.714844 0 8.535157 3.824219 8.535157 8.535157 0 4.714843-3.820313 8.535156-8.535157 8.535156-4.710937 0-8.53125-3.820313-8.53125-8.535156 0-4.714844 3.820313-8.535157 8.53125-8.535157zm0 0" fill="#ffffff" data-original="#000000" style="" class=""/><path xmlns="http://www.w3.org/2000/svg" d="m170.667969 68.265625c-14.140625 0-25.601563 11.460937-25.601563 25.601563 0 14.136718 11.460938 25.597656 25.601563 25.597656 14.136719 0 25.597656-11.460938 25.597656-25.597656 0-14.140626-11.460937-25.601563-25.597656-25.601563zm0 34.132813c-4.714844 0-8.535157-3.820313-8.535157-8.53125 0-4.714844 3.820313-8.535157 8.535157-8.535157 4.710937 0 8.53125 3.820313 8.53125 8.535157 0 4.710937-3.820313 8.53125-8.53125 8.53125zm0 0" fill="#ffffff" data-original="#000000" style="" class=""/></g></svg>
