<?xml version="1.0" encoding="utf-8"?>
<!-- Generator: Adobe Illustrator 19.2.1, SVG Export Plug-In . SVG Version: 6.00 Build 0)  -->
<svg version="1.1" id="layer" xmlns="http://www.w3.org/2000/svg" xmlns:xlink="http://www.w3.org/1999/xlink" x="0px" y="0px"
	 viewBox="0 0 652 652" style="enable-background:new 0 0 652 652;" xml:space="preserve">
<style type="text/css">
	.st0{fill:#00A551;}
	.st1{fill-rule:evenodd;clip-rule:evenodd;fill:#F3CD17;}
	.st2{fill:#EC1C24;}
	.st3{fill:#256531;}
</style>
<g>
	<g>
		<g>
			<path class="st0" d="M471.9,342.2L471.9,342.2c-43.3,13.2-104.4,3.6-160.8-18.6c-1.2,1.1-2.6,2-4.1,2.9
				c-4.2,2.4-9.7,3.8-16.4,4.2c25.8,11.5,55.2,20.8,87.2,24.9c21.5,2.2,43,2.2,63-1.1c0,0,26.8-4.1,39.3-10.6
				c22.4-11.7,31.6-24.2,31.6-24.2C508.2,323.2,495.1,334,471.9,342.2z"/>
		</g>
		<g>
			<path class="st0" d="M515.2,316.5L515.2,316.5c10.7-9.6,20.5-25.4,21-41.3c0.6-28.1-21-51.6-48.3-52.2
				c-14.6-0.4-28.2,5.7-37.9,16.7c7.2-3.8,15.2-5.8,23.2-5.8h1.3c13.6,0.3,26.3,6.1,35.6,16.2c9.4,10.2,14.4,23.5,14,37.4
				c-0.1,3.9-1,8.2-2.4,12.5c-1.9,6.7-4.9,12.9-8.9,18.2C513.6,317.6,514.5,317.1,515.2,316.5z"/>
		</g>
		<g>
			<polygon class="st1" points="444.6,248 444.6,248 448.3,259.8 461,259.8 450.6,267.1 454.2,278.3 444.6,271.4 434.6,278.8 
				438.7,267.1 428.2,259.8 441,259.8 			"/>
		</g>
		<g>
			<path class="st2" d="M441.9,260.1l-0.9,0.6h-12.8l0.5-1.6l10.5,7.2l0.3,1l-4.1,11.7l-1.4-1l10.1-7.4l1.1,0l9.6,6.9l-1.4,1
				l-3.7-11.2l0.3-1l10.4-7.2l0.5,1.6h-12.7l-0.9-0.6l-3.6-11.9h1.7L441.9,260.1z M443.8,247.7h1.7l3.7,11.9l-0.9-0.6H461l0.5,1.6
				l-10.4,7.2l0.3-1l3.7,11.2l-1.4,1l-9.6-6.9h1l-10.1,7.4l-1.4-1l4.2-11.7l0.3,1l-10.5-7.2l0.5-1.6H441l-0.9,0.6L443.8,247.7z"/>
		</g>
		<g>
			<path class="st3" d="M348.8,280.5L348.8,280.5c-3.5,0-7.2,2.4-10.7,7.1v-8.2l-2.5,1c-5,1.9-9.6,3.2-15,4l-1.6,0.3v5.4l1.6,0.3
				c2.1,0.4,3.7,0.6,4.1,1.1c0.6,0.6,0.6,2.8,0.6,4.9v21.6c0,5.7,0,5.7-5.4,6.2l-1.6,0.2v6.2h28.3v-6.3l-1.6-0.1
				c-2.9-0.2-5.4-0.4-6.2-1.1c-0.6-0.6-0.6-2.1-0.6-5v-18.7c1.9-4.6,4.4-6.7,5.9-6.7c1.1,0,1.9,0.2,3.4,1.6c1.1,1.1,2.9,1.4,4.7,0.6
				h0.1c2.9-1.4,4.7-4.2,4.7-7.2C356.9,284.2,353.6,280.5,348.8,280.5z"/>
		</g>
		<g>
			<path class="st3" d="M398.7,320.4L398.7,320.4c-1.1,0.5-2.2,0.9-2.9,0.9c-1.2,0-1.6-2.2-1.6-4.3V298c0-4.9-0.7-10.4-5.6-14.3
				c-2.5-2.1-6.1-3.2-9.8-3.2h-0.2l-0.1,0.1c-6.2,1.1-13.3,5.1-16.6,7.5c-1.9,1.5-4.1,3.2-4.1,5.8c0,3.5,3.6,6.4,6.6,6.4
				c2.7,0,4.4-1.4,5.1-3.9c0.8-3.1,1.6-5.1,2.6-6.3c0.7-0.9,1.8-1.3,3.1-1.3c4.1,0,6.5,3.6,6.5,9.6v1.1c-3.1,1.9-11.6,4.9-15,6
				c-6.4,2.1-9.5,6-9.5,11.9c0,7,5.6,14.6,14.5,14.6c3,0,7.1-2.8,11.1-5.6c0.6,1.1,1.3,2.1,2.1,2.9c1.5,1.5,4.2,2.6,6.4,2.6h0.5
				l11-6.4l-2.2-6.2L398.7,320.4z M378.1,321.9L378.1,321.9c-2,0-5.3-1.6-5.3-6.1c0-2.6,1.2-4.1,4.9-5.9c1.6-0.7,3.8-1.7,5.6-2.6
				v12.6C381.8,321,379.6,321.9,378.1,321.9z"/>
		</g>
		<g>
			<path class="st3" d="M424.3,318.1L424.3,318.1v-65.2l-2.4,0.8c-4.2,1.4-10.7,3-15.7,3.5l-1.6,0.2v5.8l1.7,0.1
				c2.4,0.2,4.2,0.4,4.8,1c0.5,0.6,0.6,2.8,0.6,4.9v48.8c0,5.7,0,5.7-5.7,6.2l-1.6,0.2v6.2h27.5v-6.2l-1.6-0.2
				C424.3,323.8,424.3,323.8,424.3,318.1z"/>
		</g>
		<g>
			<path class="st3" d="M453.3,323.2L453.3,323.2c-0.6-0.6-0.6-2.4-0.6-5.4v-38.4l-2.6,1c-4.4,1.8-9.5,3.1-15,3.9l-1.5,0.2v5.7
				l1.5,0.2c2.1,0.4,3.8,0.6,4.2,1.2c0.5,0.6,0.6,2.6,0.6,4.9v21.2c0,5.9,0,5.9-5.5,6.4l-1.6,0.2v6.2h27.2v-6.2l-1.7-0.2
				C455.5,324.1,453.8,323.8,453.3,323.2z"/>
		</g>
		<g>
			<path class="st3" d="M491.6,280.5L491.6,280.5c-3.5,0-7.2,2.4-10.7,7.1v-8.2l-2.6,1c-4.9,1.9-9.5,3.2-14.9,4l-1.6,0.3v5.4
				l1.6,0.3c2.2,0.4,3.7,0.6,4.2,1.1c0.4,0.6,0.5,2.8,0.5,4.9v21.6c0,5.7,0,5.7-5.4,6.2l-1.6,0.2v6.2h28.3v-6.3l-1.6-0.1
				c-2.8-0.2-5.4-0.4-6.2-1.1c-0.6-0.6-0.6-2.1-0.6-5v-18.7c1.9-4.6,4.4-6.7,5.9-6.7c1.1,0,1.9,0.2,3.4,1.6c1.1,1.1,2.9,1.4,4.7,0.6
				h0.1c2.8-1.4,4.7-4.2,4.7-7.2C499.6,284.2,496.4,280.5,491.6,280.5z"/>
		</g>
		<g>
			<path class="st3" d="M575.8,281.7L575.8,281.7h-22.5v6.2l1.6,0.2c1.2,0.1,4.4,0.6,4.9,1.3c0.2,0.3,0.1,1.4-0.4,3.2
				c-1.4,5.5-3.5,12.4-5.4,18.4c-0.1-0.4-0.3-0.9-0.5-1.3c-3.6-9.1-6.9-17.6-10-26.3l-0.4-1.1h-5.5l-0.4,1.1
				c-0.7,2.1-1.5,4.2-2.3,6.3c-2.7,7.3-5.2,14.3-7.7,21c-1.9-6-3.9-12.1-5.9-18.7c-0.6-1.9-0.6-2.5-0.6-2.7c0.3-0.4,1.8-0.7,4.4-1.1
				l1.5-0.2v-6.2h-25.7v6.2l1.6,0.2c4,0.5,4.4,0.7,6,5.5c4.6,13.1,8.4,25.2,12,36.9l0.4,1.3h5.9l0.4-1.2c2.7-7.4,5.5-14.6,8.2-21.4
				c0.8-1.9,1.5-3.9,2.3-5.8c1.1,2.7,2.1,5.4,3.1,8c2.6,6.2,5.1,12.6,7.6,19.2l0.4,1.1h5.7l1.4-4.2c4.4-12.9,8.5-25.2,11.6-33.1
				c2-5.2,2.5-5.8,6.7-6.4l1.6-0.2V281.7z"/>
		</g>
		<g>
			<path class="st3" d="M618,319.4L618,319.4l-1.8,0.9c-1.1,0.5-2.1,0.9-2.9,0.9c-1.6,0-1.6-3.3-1.6-4.3V298
				c0-4.9-0.6-10.4-5.6-14.3c-2.5-2.1-6.1-3.2-9.9-3.2h-0.1l-0.1,0.1c-6.2,1.1-13.3,5.1-16.6,7.5c-2,1.5-4.1,3.2-4.1,5.8
				c0,3.5,3.7,6.4,6.7,6.4c2.6,0,4.4-1.4,5.1-3.9c0.8-3.1,1.6-5.1,2.7-6.3c0.7-0.9,1.8-1.3,3.1-1.3c4.1,0,6.4,3.6,6.4,9.6v1.1
				c-3.1,1.9-11.6,4.9-15,6c-6.4,2.1-9.5,6-9.5,11.9c0,7,5.6,14.6,14.6,14.6c3,0,7.1-2.8,11.1-5.6c0.5,1.1,1.2,2.1,2.1,2.9
				c1.5,1.5,4.1,2.6,6.4,2.6h0.4l11.1-6.4L618,319.4z M588,315.8L588,315.8c0-2.6,1.2-4.1,4.9-5.9c1.9-0.8,4.2-1.9,6.2-2.9v12.5
				c-1.6,1.4-4.1,2.4-5.7,2.4C591.3,321.9,588,320.2,588,315.8z"/>
		</g>
		<g>
			<path class="st0" d="M269.4,304.4L269.4,304.4c-40.9-21.8-75.7-49.9-93.4-79.4c0,0-3.6,6.9-10.7,17.8
				c12.3,12.5,32.5,31.4,59,50.2c12.8,9,28,18.7,45.1,27.6c0-0.9,0-1.9,0-3.1L269.4,304.4z"/>
		</g>
		<g>
			<path class="st0" d="M283.2,315.3L283.2,315.3c0,6.4,1.6,7.6,6.1,7.6h0.4c1.9,0,6.7-0.4,9.7-4c-5.4-2.4-10.9-4.9-16.2-7.4V315.3z
				"/>
		</g>
		<g>
			<path class="st3" d="M303.3,292.4L303.3,292.4c5.1-2.4,10.2-6.9,10.2-15.2c0-5.5-2.4-10.4-6.7-13.3c-3.9-2.6-9.2-3.9-16.9-3.9
				h-29v6.5l1.6,0.1c3.5,0.4,5.4,0.6,6.1,1.4c0.8,0.9,0.8,3.4,0.8,6.8v29.5c0,0,0,15.4,0,16.2c0,0.3,0.3,3-0.4,4.2
				c-0.5,0.7-1.2,1.2-2.1,1.4h-0.1l-4.1,0.5v4.1h26.9c0.3-0.1,0.6-0.1,1-0.1c6.7-0.4,12.2-1.9,16.4-4.2c1.6-0.9,2.9-1.9,4.1-2.9
				c4.3-3.7,6.6-8.6,6.6-14.2C317.7,303.3,315,295.8,303.3,292.4z M282.8,271.5L282.8,271.5c0-3,0.3-3.4,0.4-3.5
				c0.4-0.3,2.1-0.8,4.6-0.8c7.3,0,11.5,4.1,11.5,11.4c0,7.9-4.2,11.3-14,11.3h-2.5V271.5z M289.7,324.5L289.7,324.5h-0.4
				c-5.7,0-7.7-2.3-7.7-9.2v-4.7v-14.9h4.6c14.6,0,17.7,7.8,17.7,14.4c0,4.1-1.1,7.2-2.8,9.4C298.2,323.1,293.9,324.5,289.7,324.5z"
				/>
		</g>
		<g>
			<path class="st3" d="M436.8,358.6L436.8,358.6c-8.3,0.8-16.7,1.1-25,1.1c-26.8,0-53.7-3.9-80.5-11.8c-8.5-2.4-17-5.3-25.5-8.6
				c-5.6-2.1-11.2-4.5-16.8-7l-27.8,0.1V331v-5.3v-0.1l5.3-0.6c0.6-0.1,0.9-0.4,1.2-0.8c0.4-0.7,0.4-1.6,0.3-2.1
				c-15.2-8-30.1-17.2-44.8-27.6c-26.3-18.7-46.6-37.5-58.9-50.1c-6.9-7-11.3-12.1-13.1-14.2c-2.9,4.9-15.2,24.8-35.8,47.1
				c-20.2,21.9-52.6,50.4-95,66.4c43.6-8,98.4-25.3,132.5-62.7l0.5-0.5l0.6,0.4c0.4,0.2,34.9,21.6,82.6,42.6
				c44,19.5,108.4,42.6,165.9,42.6c19,0,36.3-2.5,51.4-7.5c0.1,0,10.7-3.5,18.7-9.3C461.7,353.6,449.7,356.8,436.8,358.6z"/>
		</g>
		<g>
			<path d="M25.3,400.5L25.3,400.5H21c-0.6,0-0.7,0.2-0.7,0.8v19c0,0.6,0.2,0.8,0.6,0.8h2.4c0.5,0,0.7-0.3,0.7-0.7v-6.5h1.4
				c2.4,0,4.4-0.4,5.9-1.6c1.5-1.1,2.4-2.9,2.4-5.2c0-1.6-0.5-3.1-1.4-4.1C30.8,401.1,28.5,400.5,25.3,400.5z M29,409.8L29,409.8
				c-0.9,0.9-2.4,1.1-4.1,1.1h-0.8v-7.4h1.6c2.5,0,4.1,1,4.1,3.6C29.8,408.3,29.5,409.2,29,409.8z M47.9,401.1L47.9,401.1
				c-0.1-0.4-0.4-0.6-0.9-0.6h-2.4c-0.4,0-0.6,0.2-0.8,0.6l-7.2,19.2c-0.1,0.4-0.1,0.7,0.4,0.7h2.6c0.4,0,0.6-0.2,0.8-0.6L42,416
				h7.5l1.6,4.4c0.1,0.5,0.4,0.7,1,0.7h2.7c0.4,0,0.6-0.4,0.4-0.8L47.9,401.1z M43,413.1L43,413.1l2.1-6.2c0.3-0.8,0.4-1.5,0.6-2
				c0.1,0.5,0.4,1.1,0.6,1.9l2.1,6.3H43z M69.8,412.8L69.8,412.8c2.4-1,3.9-3.1,3.9-5.9c0-1.6-0.5-3.1-1.4-4.1
				c-1.6-1.9-4.3-2.2-6.9-2.2H61c-0.7,0-0.9,0.2-0.9,0.9v19c0,0.5,0.2,0.7,0.7,0.7h2.4c0.5,0,0.7-0.3,0.7-0.7v-6.9h2.3l4.2,7
				c0.3,0.4,0.5,0.6,1.1,0.6h2.6c0.6,0,0.6-0.4,0.3-0.9L69.8,412.8z M65.8,410.6L65.8,410.6H64v-7.2h1.5c2.6,0,4.3,0.9,4.3,3.5
				C69.8,409.3,68.2,410.6,65.8,410.6z M94.1,401.3L94.1,401.3l-0.2,1.7c-0.1,0.5-0.4,0.6-0.9,0.6h-5.4v16.7c0,0.5-0.2,0.7-0.7,0.7
				h-2.4c-0.5,0-0.7-0.2-0.7-0.7v-16.7h-5.5c-0.5,0-0.7-0.2-0.7-0.7v-1.7c0-0.4,0.2-0.6,0.6-0.6h15C94,400.5,94.2,400.8,94.1,401.3z
				 M114.7,400.2L114.7,400.2c-5.6,0-9.1,4.3-9.1,10.7c0,6.4,3.2,10.6,8.9,10.6c5.4,0,9.2-4,9.2-10.7
				C123.7,404.6,120.6,400.2,114.7,400.2z M114.7,418.2L114.7,418.2c-3.1,0-4.9-2.5-4.9-7.4c0-4.6,2-7.4,4.9-7.4
				c3.2,0,4.9,2.4,4.9,7.4C119.6,415.6,117.6,418.2,114.7,418.2z M142.1,401.3L142.1,401.3l-0.2,1.7c0,0.6-0.3,0.6-0.9,0.6h-7.6v5.4
				h6.9c0.6,0,0.7,0.2,0.7,0.6v1.7c0,0.5-0.2,0.7-0.7,0.7h-6.9v8.3c0,0.5-0.2,0.7-0.7,0.7h-2.3c-0.6,0-0.8-0.1-0.8-0.8v-19
				c0-0.4,0.2-0.7,0.6-0.7h11.2C142.1,400.5,142.2,400.8,142.1,401.3z M171.2,401.3L171.2,401.3L171,403c-0.1,0.5-0.4,0.6-0.9,0.6
				h-5.4v16.7c0,0.5-0.2,0.7-0.7,0.7h-2.4c-0.6,0-0.8-0.2-0.8-0.7v-16.7h-5.5c-0.5,0-0.7-0.2-0.7-0.7v-1.7c0-0.4,0.2-0.6,0.6-0.6h15
				C171.1,400.5,171.3,400.8,171.2,401.3z M192.1,401.3L192.1,401.3v19.1c0,0.5-0.2,0.7-0.7,0.7h-2.4c-0.5,0-0.8-0.2-0.8-0.7v-8.3
				h-8.4v8.3c0,0.5-0.3,0.7-0.8,0.7h-2.3c-0.5,0-0.8-0.2-0.8-0.7v-19.1c0-0.5,0.3-0.7,0.8-0.7h2.3c0.5,0,0.8,0.2,0.8,0.7v7.7h8.4
				v-7.7c0-0.5,0.4-0.7,0.8-0.7h2.4C191.9,400.5,192.1,400.8,192.1,401.3z M211.2,418L211.2,418c0.5,0,0.8,0.2,0.8,0.6v1.7
				c0,0.5-0.2,0.7-0.7,0.7h-9.7c-1.1,0-2.1-0.8-2.1-1.9v-18c0-0.4,0.2-0.7,0.6-0.7h11.2c0.6,0,0.6,0.3,0.6,0.7l-0.2,1.7
				c0,0.6-0.4,0.6-1,0.6h-7.4v5.4h6.9c0.5,0,0.6,0.2,0.6,0.6v1.8c0,0.4-0.1,0.6-0.6,0.6h-6.9v5.1c0,0.5,0.4,0.9,0.9,0.9H211.2z
				 M398.9,391.3L398.9,391.3h-5.8c-1.4,0-2.4,0.4-3.5,1.6c-1.1,1.3-8.2,9.4-8.2,9.4v-11h-8v28.1c0,0.9,0.7,1.6,1.6,1.6h6.4v-13.5
				c0,0,6,9.4,7,11c1.1,1.6,2.1,2.5,4.5,2.5h6.6l-11.2-17.6L398.9,391.3z M365,391.3L365,391.3h-17.8v27.1c0,1.4,1.5,2.6,3,2.6H365
				c0.9,0,1.6-0.7,1.6-1.6v-3.8h-10.2c-0.7,0-1.2-0.6-1.2-1.2v-6.3h9.1v-5.4h-9.1v-5.9h11.4V393C366.7,392,365.9,391.3,365,391.3z
				 M421.3,391.3L421.3,391.3h-17.8v27.1c0,1.4,1.4,2.6,3,2.6h14.8c0.9,0,1.6-0.7,1.6-1.6v-3.8h-10.2c-0.6,0-1.2-0.6-1.2-1.2v-6.3
				h9.2v-5.4h-9.2v-5.9h11.4V393C422.9,392,422.2,391.3,421.3,391.3z M307.9,391.3L307.9,391.3h-8v28.1c0,0.9,0.7,1.6,1.6,1.6h6.4
				V391.3z M291.1,391.3L291.1,391.3h-17.8v27.1c0,1.5,1.5,2.6,3,2.6h14.8c0.9,0,1.6-0.7,1.6-1.6v-3.8h-10.2c-0.7,0-1.2-0.6-1.2-1.2
				v-6.3h9.1v-5.4h-9.1v-5.9h11.4V393C292.7,392,291.9,391.3,291.1,391.3z M265.2,391.3L265.2,391.3h-7.9v11.4h-7v-11.4h-9.3v1.2
				c0,0,1.3,0.4,1.3,1.9v26.6h8v-12.9h7v12.9h7.9V391.3z M339.1,391.3L339.1,391.3v28.1c0,0.9-0.7,1.6-1.6,1.6h-4.9l-10.8-17
				c0,0,0.3,1.4,0.3,3.1v13.9h-6v-29.8h3.9c2,0,3.4,0.9,4.4,2.4c0.9,1.4,9.1,14.2,9.1,14.2s-0.3-0.9-0.3-3.2v-13.4H339.1z
				 M454,391.3L454,391.3v1.2c0,0-1.3,0.5-1.3,1.9v25c0,0.9-0.7,1.6-1.6,1.6h-4.9l-10.8-17c0,0,0.2,1.4,0.2,3.1v13.9h-5.9v-29.8h3.9
				c2,0,3.4,0.9,4.4,2.4c0.9,1.4,9.1,14.2,9.1,14.2s-0.4-0.9-0.4-3.2v-13.4H454z M226,402.2L226,402.2c-0.4,0.3-0.9-0.1-0.8-0.6
				c0.2-0.6,4.2-13,4.2-13l-11.1-8.1c-0.4-0.3-0.1-0.9,0.3-0.9c0.7,0,13.7,0,13.7,0s4-12.4,4.2-13c0.1-0.4,0.8-0.5,0.9,0
				c0.2,0.6,4.3,13,4.3,13s12.9,0,13.7,0c0.5,0,0.7,0.6,0.3,0.9l-6.6,4.8h-7.9l-2.4-7.4l-2.4,7.4h-7.9l6.4,4.6l-2.4,7.4
				C232.6,397.3,226.4,401.8,226,402.2z M485.1,419.3L485.1,419.3c0.2,0.4,0.1,0.7-0.4,0.9c-1.9,0.9-3.7,1.2-5.9,1.2
				c-6.3,0-9.4-4.4-9.4-10.5c0-6.1,3.7-10.7,9.7-10.7c2,0,3.9,0.4,5.6,1.2c0.4,0.2,0.6,0.4,0.4,0.9l-0.6,1.9
				c-0.1,0.4-0.4,0.4-0.8,0.3c-1.4-0.8-2.8-1.1-4.3-1.1c-4.1,0-5.7,3.8-5.7,7.4c0,4.6,2.1,7.5,5.8,7.5c1.4,0,2.9-0.4,4.3-1
				c0.4-0.1,0.6-0.1,0.8,0.3L485.1,419.3z M498.7,421.4L498.7,421.4c-5.7,0-8.9-4.1-8.9-10.5c0-6.4,3.6-10.7,9.2-10.7
				c5.9,0,8.9,4.4,8.9,10.5C507.9,417.4,504,421.4,498.7,421.4z M498.8,403.4L498.8,403.4c-2.9,0-4.9,2.8-4.9,7.4
				c0,4.9,1.8,7.4,4.9,7.4c3,0,4.9-2.6,4.9-7.4C503.7,405.8,502,403.4,498.8,403.4z M514.2,401.3L514.2,401.3c0-0.5,0.2-0.7,0.7-0.7
				h1.7c0.6,0,0.9,0.2,1.1,0.6l6.9,14.7l6.3-14.7c0.2-0.4,0.4-0.6,0.9-0.6h1.8c0.4,0,0.6,0.2,0.6,0.6l0.9,19.1
				c0,0.5-0.1,0.9-0.7,0.9h-2.4c-0.6,0-0.8-0.3-0.8-1l-0.4-12.1h-0.1l-5,12.5c-0.2,0.4-0.4,0.6-0.9,0.6h-1c-0.5,0-0.7-0.1-0.9-0.6
				l-5.6-12.5l-0.3,12.3c0,0.6-0.3,0.8-0.8,0.8h-2.1c-0.5,0-0.8-0.2-0.7-0.8L514.2,401.3z M553.2,412.3L553.2,412.3
				c-1.5,1.1-3.4,1.6-5.9,1.6H546v6.5c0,0.4-0.2,0.7-0.8,0.7h-2.4c-0.5,0-0.7-0.2-0.7-0.9v-19c0-0.6,0.2-0.8,0.7-0.8h4.4
				c3.1,0,5.4,0.6,6.9,2.3c1,1.1,1.5,2.6,1.5,4.2C555.6,409.3,554.7,411.1,553.2,412.3z M547.5,403.5L547.5,403.5H546v7.4h0.8
				c1.7,0,3.1-0.1,4.1-1.1c0.6-0.6,0.9-1.5,0.9-2.6C551.7,404.5,550.1,403.5,547.5,403.5z M564.9,401.1L564.9,401.1
				c0.1-0.4,0.4-0.6,0.8-0.6h2.4c0.4,0,0.7,0.2,0.8,0.6l7.3,19.2c0.2,0.4,0,0.8-0.4,0.8H573c-0.6,0-0.8-0.3-1-0.7l-1.5-4.4H563
				l-1.6,4.4c-0.1,0.4-0.4,0.6-0.8,0.6h-2.6c-0.5,0-0.6-0.4-0.4-0.8L564.9,401.1z M569.5,413.1L569.5,413.1l-2.1-6.2
				c-0.3-0.9-0.4-1.5-0.6-1.9h-0.1c-0.1,0.5-0.4,1.1-0.6,1.9l-2.1,6.2H569.5z M597.9,400.5L597.9,400.5c0.5,0,0.7,0.2,0.7,0.8v19
				c0,0.6-0.2,0.9-0.6,0.9h-1.9c-0.6,0-0.9-0.2-1.2-0.6l-9.7-13.2h-0.1v13.1c0,0.6-0.3,0.8-0.8,0.8h-2.1c-0.6,0-0.8-0.2-0.8-0.8v-19
				c0-0.6,0.3-0.8,0.8-0.8h1.9c0.5,0,0.7,0.1,1,0.6l9.8,13.4h0.1v-13.2c0-0.6,0.2-0.8,0.7-0.8H597.9z M612.4,409.6L612.4,409.6
				l4.2-8.4c0.2-0.5,0.4-0.6,1-0.6h2.1c0.6,0,0.7,0.3,0.4,0.8l-6.1,11.3v7.8c0,0.4-0.3,0.7-0.7,0.7h-2.5c-0.4,0-0.6-0.2-0.6-0.8
				v-7.6l-6.4-11.5c-0.2-0.3-0.1-0.7,0.4-0.7h2.7c0.6,0,0.9,0.1,1.1,0.6L612.4,409.6L612.4,409.6z"/>
		</g>
	</g>
</g>
</svg>
