<?xml version="1.0" encoding="utf-8"?>
<!-- Generator: Adobe Illustrator 21.0.0, SVG Export Plug-In . SVG Version: 6.00 Build 0)  -->
<svg version="1.1" id="layer" xmlns="http://www.w3.org/2000/svg" xmlns:xlink="http://www.w3.org/1999/xlink" x="0px" y="0px"
	 viewBox="0 0 652 652" style="enable-background:new 0 0 652 652;" xml:space="preserve">
<style type="text/css">
	.st0{fill:#ADADAE;}
	.st1{fill:#8C8C8C;}
</style>
<g>
	<path class="st0" d="M471.9,342.2L471.9,342.2c-43.3,13.2-104.4,3.6-160.8-18.6c-1.2,1.1-2.6,2-4.1,2.9c-4.2,2.4-9.7,3.8-16.4,4.2
		c25.8,11.5,55.2,20.8,87.2,24.9c21.5,2.2,43,2.2,63-1.1c0,0,26.8-4.1,39.3-10.6c22.4-11.7,31.6-24.2,31.6-24.2
		C508.2,323.2,495.1,334,471.9,342.2z"/>
</g>
<g>
	<path class="st0" d="M515.2,316.5L515.2,316.5c10.7-9.6,20.5-25.4,21-41.3c0.6-28.1-21-51.6-48.3-52.2
		c-14.6-0.4-28.2,5.7-37.9,16.7c7.2-3.8,15.2-5.8,23.2-5.8h1.3c13.6,0.3,26.3,6.1,35.6,16.2c9.4,10.2,14.4,23.5,14,37.4
		c-0.1,3.9-1,8.2-2.4,12.5c-1.9,6.7-4.9,12.9-8.9,18.2C513.6,317.6,514.5,317.1,515.2,316.5z"/>
</g>
<g>
	<polygon class="st0" points="444.6,248 444.6,248 448.3,259.8 461,259.8 450.6,267.1 454.2,278.3 444.6,271.4 434.6,278.8 
		438.7,267.1 428.2,259.8 441,259.8 	"/>
</g>
<path class="st1" d="M441.4,259.4l-0.9,0.6h-12.8l0.5-1.6l10.5,7.2l0.3,1l-4.1,11.7l-1.4-1l10.1-7.4h1.1l9.6,6.9l-1.4,1l-3.7-11.2
	l0.3-1l10.4-7.2l0.5,1.6h-12.7l-0.9-0.6l-3.6-11.9h1.7L441.4,259.4z M443.3,247h1.7l3.7,11.9l-0.9-0.6h12.7l0.5,1.6l-10.4,7.2l0.3-1
	l3.7,11.2l-1.4,1l-9.6-6.9h1l-10.1,7.4l-1.4-1l4.2-11.7l0.3,1l-10.5-7.2l0.5-1.6h12.9l-0.9,0.6L443.3,247z"/>
<g>
	<path class="st1" d="M348.8,280.5L348.8,280.5c-3.5,0-7.2,2.4-10.7,7.1v-8.2l-2.5,1c-5,1.9-9.6,3.2-15,4l-1.6,0.3v5.4l1.6,0.3
		c2.1,0.4,3.7,0.6,4.1,1.1c0.6,0.6,0.6,2.8,0.6,4.9V318c0,5.7,0,5.7-5.4,6.2l-1.6,0.2v6.2h28.3v-6.3l-1.6-0.1
		c-2.9-0.2-5.4-0.4-6.2-1.1c-0.6-0.6-0.6-2.1-0.6-5v-18.7c1.9-4.6,4.4-6.7,5.9-6.7c1.1,0,1.9,0.2,3.4,1.6c1.1,1.1,2.9,1.4,4.7,0.6
		h0.1c2.9-1.4,4.7-4.2,4.7-7.2C356.9,284.2,353.6,280.5,348.8,280.5z"/>
</g>
<g>
	<path class="st1" d="M398.7,320.4L398.7,320.4c-1.1,0.5-2.2,0.9-2.9,0.9c-1.2,0-1.6-2.2-1.6-4.3v-19c0-4.9-0.7-10.4-5.6-14.3
		c-2.5-2.1-6.1-3.2-9.8-3.2h-0.2l-0.1,0.1c-6.2,1.1-13.3,5.1-16.6,7.5c-1.9,1.5-4.1,3.2-4.1,5.8c0,3.5,3.6,6.4,6.6,6.4
		c2.7,0,4.4-1.4,5.1-3.9c0.8-3.1,1.6-5.1,2.6-6.3c0.7-0.9,1.8-1.3,3.1-1.3c4.1,0,6.5,3.6,6.5,9.6v1.1c-3.1,1.9-11.6,4.9-15,6
		c-6.4,2.1-9.5,6-9.5,11.9c0,7,5.6,14.6,14.5,14.6c3,0,7.1-2.8,11.1-5.6c0.6,1.1,1.3,2.1,2.1,2.9c1.5,1.5,4.2,2.6,6.4,2.6h0.5
		l11-6.4l-2.2-6.2L398.7,320.4z M378.1,321.9L378.1,321.9c-2,0-5.3-1.6-5.3-6.1c0-2.6,1.2-4.1,4.9-5.9c1.6-0.7,3.8-1.7,5.6-2.6v12.6
		C381.8,321,379.6,321.9,378.1,321.9z"/>
</g>
<g>
	<path class="st1" d="M424.3,318.1L424.3,318.1v-65.2l-2.4,0.8c-4.2,1.4-10.7,3-15.7,3.5l-1.6,0.2v5.8l1.7,0.1
		c2.4,0.2,4.2,0.4,4.8,1c0.5,0.6,0.6,2.8,0.6,4.9V318c0,5.7,0,5.7-5.7,6.2l-1.6,0.2v6.2h27.5v-6.2l-1.6-0.2
		C424.3,323.8,424.3,323.8,424.3,318.1z"/>
</g>
<g>
	<path class="st1" d="M453.3,323.2L453.3,323.2c-0.6-0.6-0.6-2.4-0.6-5.4v-38.4l-2.6,1c-4.4,1.8-9.5,3.1-15,3.9l-1.5,0.2v5.7
		l1.5,0.2c2.1,0.4,3.8,0.6,4.2,1.2c0.5,0.6,0.6,2.6,0.6,4.9v21.2c0,5.9,0,5.9-5.5,6.4l-1.6,0.2v6.2H460v-6.2l-1.7-0.2
		C455.5,324.1,453.8,323.8,453.3,323.2z"/>
</g>
<g>
	<path class="st1" d="M491.6,280.5L491.6,280.5c-3.5,0-7.2,2.4-10.7,7.1v-8.2l-2.6,1c-4.9,1.9-9.5,3.2-14.9,4l-1.6,0.3v5.4l1.6,0.3
		c2.2,0.4,3.7,0.6,4.2,1.1c0.4,0.6,0.5,2.8,0.5,4.9V318c0,5.7,0,5.7-5.4,6.2l-1.6,0.2v6.2h28.3v-6.3l-1.6-0.1
		c-2.8-0.2-5.4-0.4-6.2-1.1c-0.6-0.6-0.6-2.1-0.6-5v-18.7c1.9-4.6,4.4-6.7,5.9-6.7c1.1,0,1.9,0.2,3.4,1.6c1.1,1.1,2.9,1.4,4.7,0.6
		h0.1c2.8-1.4,4.7-4.2,4.7-7.2C499.6,284.2,496.4,280.5,491.6,280.5z"/>
</g>
<g>
	<path class="st1" d="M575.8,281.7L575.8,281.7h-22.5v6.2l1.6,0.2c1.2,0.1,4.4,0.6,4.9,1.3c0.2,0.3,0.1,1.4-0.4,3.2
		c-1.4,5.5-3.5,12.4-5.4,18.4c-0.1-0.4-0.3-0.9-0.5-1.3c-3.6-9.1-6.9-17.6-10-26.3l-0.4-1.1h-5.5l-0.4,1.1c-0.7,2.1-1.5,4.2-2.3,6.3
		c-2.7,7.3-5.2,14.3-7.7,21c-1.9-6-3.9-12.1-5.9-18.7c-0.6-1.9-0.6-2.5-0.6-2.7c0.3-0.4,1.8-0.7,4.4-1.1l1.5-0.2v-6.2h-25.7v6.2
		l1.6,0.2c4,0.5,4.4,0.7,6,5.5c4.6,13.1,8.4,25.2,12,36.9l0.4,1.3h5.9l0.4-1.2c2.7-7.4,5.5-14.6,8.2-21.4c0.8-1.9,1.5-3.9,2.3-5.8
		c1.1,2.7,2.1,5.4,3.1,8c2.6,6.2,5.1,12.6,7.6,19.2l0.4,1.1h5.7l1.4-4.2c4.4-12.9,8.5-25.2,11.6-33.1c2-5.2,2.5-5.8,6.7-6.4l1.6-0.2
		L575.8,281.7L575.8,281.7z"/>
</g>
<g>
	<path class="st1" d="M618,319.4L618,319.4l-1.8,0.9c-1.1,0.5-2.1,0.9-2.9,0.9c-1.6,0-1.6-3.3-1.6-4.3V298c0-4.9-0.6-10.4-5.6-14.3
		c-2.5-2.1-6.1-3.2-9.9-3.2h-0.1l-0.1,0.1c-6.2,1.1-13.3,5.1-16.6,7.5c-2,1.5-4.1,3.2-4.1,5.8c0,3.5,3.7,6.4,6.7,6.4
		c2.6,0,4.4-1.4,5.1-3.9c0.8-3.1,1.6-5.1,2.7-6.3c0.7-0.9,1.8-1.3,3.1-1.3c4.1,0,6.4,3.6,6.4,9.6v1.1c-3.1,1.9-11.6,4.9-15,6
		c-6.4,2.1-9.5,6-9.5,11.9c0,7,5.6,14.6,14.6,14.6c3,0,7.1-2.8,11.1-5.6c0.5,1.1,1.2,2.1,2.1,2.9c1.5,1.5,4.1,2.6,6.4,2.6h0.4
		l11.1-6.4L618,319.4z M588,315.8L588,315.8c0-2.6,1.2-4.1,4.9-5.9c1.9-0.8,4.2-1.9,6.2-2.9v12.5c-1.6,1.4-4.1,2.4-5.7,2.4
		C591.3,321.9,588,320.2,588,315.8z"/>
</g>
<g>
	<path class="st0" d="M269.4,304.4L269.4,304.4c-40.9-21.8-75.7-49.9-93.4-79.4c0,0-3.6,6.9-10.7,17.8c12.3,12.5,32.5,31.4,59,50.2
		c12.8,9,28,18.7,45.1,27.6c0-0.9,0-1.9,0-3.1V304.4z"/>
</g>
<g>
	<path class="st0" d="M283.2,315.3L283.2,315.3c0,6.4,1.6,7.6,6.1,7.6h0.4c1.9,0,6.7-0.4,9.7-4c-5.4-2.4-10.9-4.9-16.2-7.4V315.3z"
		/>
</g>
<g>
	<path class="st1" d="M303.3,292.4L303.3,292.4c5.1-2.4,10.2-6.9,10.2-15.2c0-5.5-2.4-10.4-6.7-13.3c-3.9-2.6-9.2-3.9-16.9-3.9h-29
		v6.5l1.6,0.1c3.5,0.4,5.4,0.6,6.1,1.4c0.8,0.9,0.8,3.4,0.8,6.8v29.5c0,0,0,15.4,0,16.2c0,0.3,0.3,3-0.4,4.2
		c-0.5,0.7-1.2,1.2-2.1,1.4h-0.1l-4.1,0.5v4.1h26.9c0.3-0.1,0.6-0.1,1-0.1c6.7-0.4,12.2-1.9,16.4-4.2c1.6-0.9,2.9-1.9,4.1-2.9
		c4.3-3.7,6.6-8.6,6.6-14.2C317.7,303.3,315,295.8,303.3,292.4z M282.8,271.5L282.8,271.5c0-3,0.3-3.4,0.4-3.5
		c0.4-0.3,2.1-0.8,4.6-0.8c7.3,0,11.5,4.1,11.5,11.4c0,7.9-4.2,11.3-14,11.3h-2.5V271.5z M289.7,324.5L289.7,324.5h-0.4
		c-5.7,0-7.7-2.3-7.7-9.2v-4.7v-14.9h4.6c14.6,0,17.7,7.8,17.7,14.4c0,4.1-1.1,7.2-2.8,9.4C298.2,323.1,293.9,324.5,289.7,324.5z"/>
</g>
<g>
	<path class="st1" d="M436.8,358.6L436.8,358.6c-8.3,0.8-16.7,1.1-25,1.1c-26.8,0-53.7-3.9-80.5-11.8c-8.5-2.4-17-5.3-25.5-8.6
		c-5.6-2.1-11.2-4.5-16.8-7l-27.8,0.1V331v-5.3v-0.1l5.3-0.6c0.6-0.1,0.9-0.4,1.2-0.8c0.4-0.7,0.4-1.6,0.3-2.1
		c-15.2-8-30.1-17.2-44.8-27.6c-26.3-18.7-46.6-37.5-58.9-50.1c-6.9-7-11.3-12.1-13.1-14.2c-2.9,4.9-15.2,24.8-35.8,47.1
		c-20.2,21.9-52.6,50.4-95,66.4c43.6-8,98.4-25.3,132.5-62.7l0.5-0.5l0.6,0.4c0.4,0.2,34.9,21.6,82.6,42.6
		c44,19.5,108.4,42.6,165.9,42.6c19,0,36.3-2.5,51.4-7.5c0.1,0,10.7-3.5,18.7-9.3C461.7,353.6,449.7,356.8,436.8,358.6z"/>
</g>
</svg>
